<svg width="16" height="16" viewBox="0 0 16 16" fill="none" xmlns="http://www.w3.org/2000/svg">
<g id="Add Category">
<path id="Vector" d="M9.66658 3.0835C9.25237 3.0835 8.91658 3.41928 8.91658 3.8335C8.91658 4.24771 9.25237 4.5835 9.66658 4.5835V3.0835ZM14.6666 4.5835C15.0808 4.5835 15.4166 4.24771 15.4166 3.8335C15.4166 3.41928 15.0808 3.0835 14.6666 3.0835V4.5835ZM11.4166 6.3335C11.4166 6.74771 11.7524 7.0835 12.1666 7.0835C12.5808 7.0835 12.9166 6.74771 12.9166 6.3335H11.4166ZM12.9166 1.3335C12.9166 0.919283 12.5808 0.583496 12.1666 0.583496C11.7524 0.583496 11.4166 0.919283 11.4166 1.3335H12.9166ZM3.83325 5.5835C3.43471 5.5835 3.17336 5.58309 2.97238 5.56938C2.77814 5.55612 2.69565 5.53299 2.64913 5.51372L2.0751 6.89954C2.33486 7.00713 2.59966 7.04743 2.87027 7.0659C3.13415 7.0839 3.45523 7.0835 3.83325 7.0835V5.5835ZM0.583252 3.8335C0.583252 4.21152 0.582846 4.5326 0.60085 4.79648C0.619314 5.06709 0.659613 5.33189 0.76721 5.59165L2.15303 5.01762C2.13376 4.9711 2.11062 4.88861 2.09737 4.69437C2.08366 4.49339 2.08325 4.23204 2.08325 3.8335H0.583252ZM2.64913 5.51372C2.42452 5.42068 2.24607 5.24223 2.15303 5.01762L0.76721 5.59165C1.01249 6.1838 1.48295 6.65426 2.0751 6.89954L2.64913 5.51372ZM5.58325 3.8335C5.58325 4.23204 5.58285 4.49339 5.56913 4.69437C5.55588 4.88861 5.53275 4.9711 5.51347 5.01762L6.89929 5.59165C7.00689 5.33189 7.04719 5.06709 7.06565 4.79648C7.08366 4.5326 7.08325 4.21152 7.08325 3.8335H5.58325ZM3.83325 7.0835C4.21127 7.0835 4.53235 7.0839 4.79623 7.0659C5.06685 7.04743 5.33164 7.00713 5.5914 6.89954L5.01738 5.51372C4.97085 5.53299 4.88837 5.55612 4.69412 5.56938C4.49315 5.58309 4.2318 5.5835 3.83325 5.5835V7.0835ZM5.51347 5.01762C5.42044 5.24223 5.24199 5.42068 5.01738 5.51372L5.5914 6.89954C6.18355 6.65426 6.65402 6.1838 6.89929 5.59165L5.51347 5.01762ZM3.83325 2.0835C4.2318 2.0835 4.49315 2.0839 4.69412 2.09761C4.88837 2.11087 4.97085 2.134 5.01738 2.15327L5.5914 0.767454C5.33164 0.659858 5.06685 0.619558 4.79623 0.601094C4.53235 0.58309 4.21127 0.583496 3.83325 0.583496V2.0835ZM7.08325 3.8335C7.08325 3.45547 7.08366 3.13439 7.06565 2.87052C7.04719 2.5999 7.00689 2.3351 6.89929 2.07534L5.51347 2.64937C5.53275 2.69589 5.55588 2.77838 5.56913 2.97262C5.58285 3.1736 5.58325 3.43495 5.58325 3.8335H7.08325ZM5.01738 2.15327C5.24199 2.24631 5.42044 2.42476 5.51347 2.64937L6.89929 2.07534C6.65402 1.48319 6.18355 1.01273 5.5914 0.767454L5.01738 2.15327ZM3.83325 0.583496C3.45523 0.583496 3.13415 0.58309 2.87027 0.601094C2.59966 0.619558 2.33486 0.659858 2.0751 0.767454L2.64913 2.15327C2.69565 2.134 2.77814 2.11087 2.97238 2.09761C3.17336 2.0839 3.43471 2.0835 3.83325 2.0835V0.583496ZM2.08325 3.8335C2.08325 3.43495 2.08366 3.1736 2.09737 2.97262C2.11062 2.77838 2.13376 2.69589 2.15303 2.64937L0.76721 2.07534C0.659613 2.3351 0.619314 2.5999 0.60085 2.87052C0.582846 3.13439 0.583252 3.45547 0.583252 3.8335H2.08325ZM2.0751 0.767454C1.48295 1.01273 1.01249 1.48319 0.76721 2.07534L2.15303 2.64937C2.24607 2.42476 2.42452 2.24631 2.64913 2.15327L2.0751 0.767454ZM9.66658 4.5835H14.6666V3.0835H9.66658V4.5835ZM12.9166 6.3335V1.3335H11.4166V6.3335H12.9166ZM3.83325 13.9168C3.43471 13.9168 3.17336 13.9164 2.97238 13.9027C2.77814 13.8895 2.69565 13.8663 2.64913 13.8471L2.0751 15.2329C2.33486 15.3405 2.59966 15.3808 2.87027 15.3992C3.13415 15.4172 3.45523 15.4168 3.83325 15.4168V13.9168ZM0.583252 12.1668C0.583252 12.5449 0.582846 12.8659 0.60085 13.1298C0.619314 13.4004 0.659613 13.6652 0.76721 13.925L2.15303 13.351C2.13376 13.3044 2.11062 13.2219 2.09737 13.0277C2.08366 12.8267 2.08325 12.5654 2.08325 12.1668H0.583252ZM2.64913 13.8471C2.42452 13.754 2.24607 13.5756 2.15303 13.351L0.76721 13.925C1.01249 14.5171 1.48295 14.9876 2.0751 15.2329L2.64913 13.8471ZM5.58325 12.1668C5.58325 12.5654 5.58285 12.8267 5.56913 13.0277C5.55588 13.2219 5.53275 13.3044 5.51347 13.351L6.89929 13.925C7.00689 13.6652 7.04719 13.4004 7.06565 13.1298C7.08366 12.8659 7.08325 12.5449 7.08325 12.1668H5.58325ZM3.83325 15.4168C4.21127 15.4168 4.53235 15.4172 4.79623 15.3992C5.06685 15.3808 5.33164 15.3405 5.5914 15.2329L5.01738 13.8471C4.97085 13.8663 4.88837 13.8895 4.69412 13.9027C4.49315 13.9164 4.2318 13.9168 3.83325 13.9168V15.4168ZM5.51347 13.351C5.42044 13.5756 5.24199 13.754 5.01738 13.8471L5.5914 15.2329C6.18356 14.9876 6.65402 14.5171 6.89929 13.925L5.51347 13.351ZM3.83325 10.4168C4.2318 10.4168 4.49315 10.4172 4.69412 10.4309C4.88837 10.4442 4.97085 10.4673 5.01738 10.4866L5.5914 9.10079C5.33164 8.99319 5.06685 8.95289 4.79623 8.93443C4.53235 8.91642 4.21127 8.91683 3.83325 8.91683V10.4168ZM7.08325 12.1668C7.08325 11.7888 7.08366 11.4677 7.06565 11.2038C7.04719 10.9332 7.00689 10.6684 6.89929 10.4087L5.51347 10.9827C5.53275 11.0292 5.55588 11.1117 5.56913 11.306C5.58285 11.5069 5.58325 11.7683 5.58325 12.1668H7.08325ZM5.01738 10.4866C5.24199 10.5796 5.42044 10.7581 5.51347 10.9827L6.89929 10.4087C6.65402 9.81653 6.18356 9.34606 5.5914 9.10079L5.01738 10.4866ZM3.83325 8.91683C3.45523 8.91683 3.13415 8.91642 2.87027 8.93443C2.59966 8.95289 2.33486 8.99319 2.0751 9.10079L2.64913 10.4866C2.69565 10.4673 2.77814 10.4442 2.97238 10.4309C3.17336 10.4172 3.43471 10.4168 3.83325 10.4168V8.91683ZM2.08325 12.1668C2.08325 11.7683 2.08366 11.5069 2.09737 11.306C2.11062 11.1117 2.13376 11.0292 2.15303 10.9827L0.76721 10.4087C0.659613 10.6684 0.619314 10.9332 0.60085 11.2038C0.582846 11.4677 0.583252 11.7888 0.583252 12.1668H2.08325ZM2.0751 9.10079C1.48295 9.34606 1.01249 9.81653 0.76721 10.4087L2.15303 10.9827C2.24607 10.7581 2.42452 10.5796 2.64913 10.4866L2.0751 9.10079ZM12.1666 13.9168C11.768 13.9168 11.5067 13.9164 11.3057 13.9027C11.1115 13.8895 11.029 13.8663 10.9825 13.8471L10.4084 15.2329C10.6682 15.3405 10.933 15.3808 11.2036 15.3992C11.4675 15.4172 11.7886 15.4168 12.1666 15.4168V13.9168ZM8.91658 12.1668C8.91658 12.5449 8.91618 12.8659 8.93418 13.1298C8.95265 13.4004 8.99295 13.6652 9.10054 13.925L10.4864 13.351C10.4671 13.3044 10.444 13.2219 10.4307 13.0277C10.417 12.8267 10.4166 12.5654 10.4166 12.1668H8.91658ZM10.9825 13.8471C10.7578 13.754 10.5794 13.5756 10.4864 13.351L9.10054 13.925C9.34582 14.5171 9.81628 14.9876 10.4084 15.2329L10.9825 13.8471ZM13.9166 12.1668C13.9166 12.5654 13.9162 12.8267 13.9025 13.0277C13.8892 13.2219 13.8661 13.3044 13.8468 13.351L15.2326 13.925C15.3402 13.6652 15.3805 13.4004 15.399 13.1298C15.417 12.8659 15.4166 12.5449 15.4166 12.1668H13.9166ZM12.1666 15.4168C12.5446 15.4168 12.8657 15.4172 13.1296 15.3992C13.4002 15.3808 13.665 15.3405 13.9247 15.2329L13.3507 13.8471C13.3042 13.8663 13.2217 13.8895 13.0275 13.9027C12.8265 13.9164 12.5651 13.9168 12.1666 13.9168V15.4168ZM13.8468 13.351C13.7538 13.5756 13.5753 13.754 13.3507 13.8471L13.9247 15.2329C14.5169 14.9876 14.9874 14.5171 15.2326 13.925L13.8468 13.351ZM12.1666 10.4168C12.5651 10.4168 12.8265 10.4172 13.0275 10.4309C13.2217 10.4442 13.3042 10.4673 13.3507 10.4866L13.9247 9.10079C13.665 8.99319 13.4002 8.95289 13.1296 8.93443C12.8657 8.91642 12.5446 8.91683 12.1666 8.91683V10.4168ZM15.4166 12.1668C15.4166 11.7888 15.417 11.4677 15.399 11.2038C15.3805 10.9332 15.3402 10.6684 15.2326 10.4087L13.8468 10.9827C13.8661 11.0292 13.8892 11.1117 13.9025 11.306C13.9162 11.5069 13.9166 11.7683 13.9166 12.1668H15.4166ZM13.3507 10.4866C13.5753 10.5796 13.7538 10.7581 13.8468 10.9827L15.2326 10.4087C14.9874 9.81653 14.5169 9.34606 13.9247 9.10079L13.3507 10.4866ZM12.1666 8.91683C11.7886 8.91683 11.4675 8.91642 11.2036 8.93443C10.933 8.95289 10.6682 8.99319 10.4084 9.10079L10.9825 10.4866C11.029 10.4673 11.1115 10.4442 11.3057 10.4309C11.5067 10.4172 11.768 10.4168 12.1666 10.4168V8.91683ZM10.4166 12.1668C10.4166 11.7683 10.417 11.5069 10.4307 11.306C10.444 11.1117 10.4671 11.0292 10.4864 10.9827L9.10054 10.4087C8.99295 10.6684 8.95265 10.9332 8.93418 11.2038C8.91618 11.4677 8.91658 11.7888 8.91658 12.1668H10.4166ZM10.4084 9.10079C9.81628 9.34606 9.34582 9.81653 9.10054 10.4087L10.4864 10.9827C10.5794 10.7581 10.7578 10.5796 10.9825 10.4866L10.4084 9.10079Z" fill="#000814"/>
</g>
</svg>
