<svg width="16" height="16" viewBox="0 0 16 16" fill="none" xmlns="http://www.w3.org/2000/svg">
<g id="Add Category">
<path id="Vector" d="M9.66658 3.08325C9.25237 3.08325 8.91658 3.41904 8.91658 3.83325C8.91658 4.24747 9.25237 4.58325 9.66658 4.58325V3.08325ZM14.6666 4.58325C15.0808 4.58325 15.4166 4.24747 15.4166 3.83325C15.4166 3.41904 15.0808 3.08325 14.6666 3.08325V4.58325ZM11.4166 6.33325C11.4166 6.74747 11.7524 7.08325 12.1666 7.08325C12.5808 7.08325 12.9166 6.74747 12.9166 6.33325H11.4166ZM12.9166 1.33325C12.9166 0.919038 12.5808 0.583252 12.1666 0.583252C11.7524 0.583252 11.4166 0.919038 11.4166 1.33325H12.9166ZM3.83325 5.58325C3.43471 5.58325 3.17336 5.58285 2.97238 5.56913C2.77814 5.55588 2.69565 5.53275 2.64913 5.51347L2.0751 6.89929C2.33486 7.00689 2.59966 7.04719 2.87027 7.06565C3.13415 7.08366 3.45523 7.08325 3.83325 7.08325V5.58325ZM0.583252 3.83325C0.583252 4.21127 0.582846 4.53235 0.60085 4.79623C0.619314 5.06685 0.659613 5.33164 0.76721 5.5914L2.15303 5.01738C2.13376 4.97085 2.11062 4.88837 2.09737 4.69412C2.08366 4.49315 2.08325 4.2318 2.08325 3.83325H0.583252ZM2.64913 5.51347C2.42452 5.42044 2.24607 5.24199 2.15303 5.01738L0.76721 5.5914C1.01249 6.18355 1.48295 6.65402 2.0751 6.89929L2.64913 5.51347ZM5.58325 3.83325C5.58325 4.2318 5.58285 4.49315 5.56913 4.69412C5.55588 4.88837 5.53275 4.97085 5.51347 5.01738L6.89929 5.5914C7.00689 5.33164 7.04719 5.06685 7.06565 4.79623C7.08366 4.53235 7.08325 4.21127 7.08325 3.83325H5.58325ZM3.83325 7.08325C4.21127 7.08325 4.53235 7.08366 4.79623 7.06565C5.06685 7.04719 5.33164 7.00689 5.5914 6.89929L5.01738 5.51347C4.97085 5.53275 4.88837 5.55588 4.69412 5.56913C4.49315 5.58285 4.2318 5.58325 3.83325 5.58325V7.08325ZM5.51347 5.01738C5.42044 5.24199 5.24199 5.42044 5.01738 5.51347L5.5914 6.89929C6.18355 6.65402 6.65402 6.18355 6.89929 5.5914L5.51347 5.01738ZM3.83325 2.08325C4.2318 2.08325 4.49315 2.08366 4.69412 2.09737C4.88837 2.11062 4.97085 2.13376 5.01738 2.15303L5.5914 0.76721C5.33164 0.659613 5.06685 0.619314 4.79623 0.60085C4.53235 0.582846 4.21127 0.583252 3.83325 0.583252V2.08325ZM7.08325 3.83325C7.08325 3.45523 7.08366 3.13415 7.06565 2.87027C7.04719 2.59966 7.00689 2.33486 6.89929 2.0751L5.51347 2.64913C5.53275 2.69565 5.55588 2.77814 5.56913 2.97238C5.58285 3.17336 5.58325 3.43471 5.58325 3.83325H7.08325ZM5.01738 2.15303C5.24199 2.24607 5.42044 2.42452 5.51347 2.64913L6.89929 2.0751C6.65402 1.48295 6.18355 1.01249 5.5914 0.76721L5.01738 2.15303ZM3.83325 0.583252C3.45523 0.583252 3.13415 0.582846 2.87027 0.60085C2.59966 0.619314 2.33486 0.659613 2.0751 0.76721L2.64913 2.15303C2.69565 2.13376 2.77814 2.11062 2.97238 2.09737C3.17336 2.08366 3.43471 2.08325 3.83325 2.08325V0.583252ZM2.08325 3.83325C2.08325 3.43471 2.08366 3.17336 2.09737 2.97238C2.11062 2.77814 2.13376 2.69565 2.15303 2.64913L0.76721 2.0751C0.659613 2.33486 0.619314 2.59966 0.60085 2.87027C0.582846 3.13415 0.583252 3.45523 0.583252 3.83325H2.08325ZM2.0751 0.76721C1.48295 1.01249 1.01249 1.48295 0.76721 2.0751L2.15303 2.64913C2.24607 2.42452 2.42452 2.24607 2.64913 2.15303L2.0751 0.76721ZM9.66658 4.58325H14.6666V3.08325H9.66658V4.58325ZM12.9166 6.33325V1.33325H11.4166V6.33325H12.9166ZM3.83325 13.9166C3.43471 13.9166 3.17336 13.9162 2.97238 13.9025C2.77814 13.8892 2.69565 13.8661 2.64913 13.8468L2.0751 15.2326C2.33486 15.3402 2.59966 15.3805 2.87027 15.399C3.13415 15.417 3.45523 15.4166 3.83325 15.4166V13.9166ZM0.583252 12.1666C0.583252 12.5446 0.582846 12.8657 0.60085 13.1296C0.619314 13.4002 0.659613 13.665 0.76721 13.9247L2.15303 13.3507C2.13376 13.3042 2.11062 13.2217 2.09737 13.0275C2.08366 12.8265 2.08325 12.5651 2.08325 12.1666H0.583252ZM2.64913 13.8468C2.42452 13.7538 2.24607 13.5753 2.15303 13.3507L0.76721 13.9247C1.01249 14.5169 1.48295 14.9874 2.0751 15.2326L2.64913 13.8468ZM5.58325 12.1666C5.58325 12.5651 5.58285 12.8265 5.56913 13.0275C5.55588 13.2217 5.53275 13.3042 5.51347 13.3507L6.89929 13.9247C7.00689 13.665 7.04719 13.4002 7.06565 13.1296C7.08366 12.8657 7.08325 12.5446 7.08325 12.1666H5.58325ZM3.83325 15.4166C4.21127 15.4166 4.53235 15.417 4.79623 15.399C5.06685 15.3805 5.33164 15.3402 5.5914 15.2326L5.01738 13.8468C4.97085 13.8661 4.88837 13.8892 4.69412 13.9025C4.49315 13.9162 4.2318 13.9166 3.83325 13.9166V15.4166ZM5.51347 13.3507C5.42044 13.5753 5.24199 13.7538 5.01738 13.8468L5.5914 15.2326C6.18356 14.9874 6.65402 14.5169 6.89929 13.9247L5.51347 13.3507ZM3.83325 10.4166C4.2318 10.4166 4.49315 10.417 4.69412 10.4307C4.88837 10.444 4.97085 10.4671 5.01738 10.4864L5.5914 9.10054C5.33164 8.99295 5.06685 8.95265 4.79623 8.93418C4.53235 8.91618 4.21127 8.91658 3.83325 8.91658V10.4166ZM7.08325 12.1666C7.08325 11.7886 7.08366 11.4675 7.06565 11.2036C7.04719 10.933 7.00689 10.6682 6.89929 10.4084L5.51347 10.9825C5.53275 11.029 5.55588 11.1115 5.56913 11.3057C5.58285 11.5067 5.58325 11.768 5.58325 12.1666H7.08325ZM5.01738 10.4864C5.24199 10.5794 5.42044 10.7578 5.51347 10.9825L6.89929 10.4084C6.65402 9.81628 6.18356 9.34582 5.5914 9.10054L5.01738 10.4864ZM3.83325 8.91658C3.45523 8.91658 3.13415 8.91618 2.87027 8.93418C2.59966 8.95265 2.33486 8.99295 2.0751 9.10054L2.64913 10.4864C2.69565 10.4671 2.77814 10.444 2.97238 10.4307C3.17336 10.417 3.43471 10.4166 3.83325 10.4166V8.91658ZM2.08325 12.1666C2.08325 11.768 2.08366 11.5067 2.09737 11.3057C2.11062 11.1115 2.13376 11.029 2.15303 10.9825L0.76721 10.4084C0.659613 10.6682 0.619314 10.933 0.60085 11.2036C0.582846 11.4675 0.583252 11.7886 0.583252 12.1666H2.08325ZM2.0751 9.10054C1.48295 9.34582 1.01249 9.81628 0.76721 10.4084L2.15303 10.9825C2.24607 10.7578 2.42452 10.5794 2.64913 10.4864L2.0751 9.10054ZM12.1666 13.9166C11.768 13.9166 11.5067 13.9162 11.3057 13.9025C11.1115 13.8892 11.029 13.8661 10.9825 13.8468L10.4084 15.2326C10.6682 15.3402 10.933 15.3805 11.2036 15.399C11.4675 15.417 11.7886 15.4166 12.1666 15.4166V13.9166ZM8.91658 12.1666C8.91658 12.5446 8.91618 12.8657 8.93418 13.1296C8.95265 13.4002 8.99295 13.665 9.10054 13.9247L10.4864 13.3507C10.4671 13.3042 10.444 13.2217 10.4307 13.0275C10.417 12.8265 10.4166 12.5651 10.4166 12.1666H8.91658ZM10.9825 13.8468C10.7578 13.7538 10.5794 13.5753 10.4864 13.3507L9.10054 13.9247C9.34582 14.5169 9.81628 14.9874 10.4084 15.2326L10.9825 13.8468ZM13.9166 12.1666C13.9166 12.5651 13.9162 12.8265 13.9025 13.0275C13.8892 13.2217 13.8661 13.3042 13.8468 13.3507L15.2326 13.9247C15.3402 13.665 15.3805 13.4002 15.399 13.1296C15.417 12.8657 15.4166 12.5446 15.4166 12.1666H13.9166ZM12.1666 15.4166C12.5446 15.4166 12.8657 15.417 13.1296 15.399C13.4002 15.3805 13.665 15.3402 13.9247 15.2326L13.3507 13.8468C13.3042 13.8661 13.2217 13.8892 13.0275 13.9025C12.8265 13.9162 12.5651 13.9166 12.1666 13.9166V15.4166ZM13.8468 13.3507C13.7538 13.5753 13.5753 13.7538 13.3507 13.8468L13.9247 15.2326C14.5169 14.9874 14.9874 14.5169 15.2326 13.9247L13.8468 13.3507ZM12.1666 10.4166C12.5651 10.4166 12.8265 10.417 13.0275 10.4307C13.2217 10.444 13.3042 10.4671 13.3507 10.4864L13.9247 9.10054C13.665 8.99295 13.4002 8.95265 13.1296 8.93418C12.8657 8.91618 12.5446 8.91658 12.1666 8.91658V10.4166ZM15.4166 12.1666C15.4166 11.7886 15.417 11.4675 15.399 11.2036C15.3805 10.933 15.3402 10.6682 15.2326 10.4084L13.8468 10.9825C13.8661 11.029 13.8892 11.1115 13.9025 11.3057C13.9162 11.5067 13.9166 11.768 13.9166 12.1666H15.4166ZM13.3507 10.4864C13.5753 10.5794 13.7538 10.7578 13.8468 10.9825L15.2326 10.4084C14.9874 9.81628 14.5169 9.34582 13.9247 9.10054L13.3507 10.4864ZM12.1666 8.91658C11.7886 8.91658 11.4675 8.91618 11.2036 8.93418C10.933 8.95265 10.6682 8.99295 10.4084 9.10054L10.9825 10.4864C11.029 10.4671 11.1115 10.444 11.3057 10.4307C11.5067 10.417 11.768 10.4166 12.1666 10.4166V8.91658ZM10.4166 12.1666C10.4166 11.768 10.417 11.5067 10.4307 11.3057C10.444 11.1115 10.4671 11.029 10.4864 10.9825L9.10054 10.4084C8.99295 10.6682 8.95265 10.933 8.93418 11.2036C8.91618 11.4675 8.91658 11.7886 8.91658 12.1666H10.4166ZM10.4084 9.10054C9.81628 9.34582 9.34582 9.81628 9.10054 10.4084L10.4864 10.9825C10.5794 10.7578 10.7578 10.5794 10.9825 10.4864L10.4084 9.10054Z" fill="#CCCCCC"/>
</g>
</svg>
