<svg width="20" height="19" viewBox="0 0 20 19" fill="none" xmlns="http://www.w3.org/2000/svg">
<g id="Message 3">
<path id="Vector" d="M9.72443 15.792L10.1604 16.4023L9.72443 15.792ZM9.76862 15.7605L9.33661 15.1474L9.76862 15.7605ZM12.142 14.9999L12.1468 15.7499L12.142 14.9999ZM6.16333 16.2584L6.85969 16.5369L6.16333 16.2584ZM7.54881 17.346L7.11288 16.7357L7.54881 17.346ZM18.1651 12.0055L18.8848 12.2166L18.1651 12.0055ZM15.3391 14.8315L15.5502 15.5512L15.3391 14.8315ZM3.94179 2.12064L4.28228 2.7889L3.94179 2.12064ZM2.12089 3.94154L2.78914 4.28204L2.12089 3.94154ZM16.0584 2.12064L15.7179 2.7889L16.0584 2.12064ZM17.8793 3.94154L17.211 4.28204L17.8793 3.94154ZM6.66675 9.24984C6.25253 9.24984 5.91675 9.58562 5.91675 9.99984C5.91675 10.4141 6.25253 10.7498 6.66675 10.7498V9.24984ZM13.3334 10.7498C13.7476 10.7498 14.0834 10.4141 14.0834 9.99984C14.0834 9.58562 13.7476 9.24984 13.3334 9.24984V10.7498ZM10.0001 5.9165C9.58587 5.9165 9.25008 6.25229 9.25008 6.6665C9.25008 7.08072 9.58587 7.4165 10.0001 7.4165V5.9165ZM13.3334 7.4165C13.7476 7.4165 14.0834 7.08072 14.0834 6.6665C14.0834 6.25229 13.7476 5.9165 13.3334 5.9165V7.4165ZM11.6667 0.916504H8.33341V2.4165H11.6667V0.916504ZM0.916748 8.33317V11.8568H2.41675V8.33317H0.916748ZM19.0834 9.32002V8.33317H17.5834V9.32002H19.0834ZM4.80979 15.7498H5.31126V14.2498H4.80979V15.7498ZM7.98474 17.9563L10.1604 16.4023L9.2885 15.1817L7.11288 16.7357L7.98474 17.9563ZM12.1963 15.7498H12.6536V14.2498H12.1963V15.7498ZM10.1604 16.4023C10.1833 16.3859 10.1921 16.3796 10.2006 16.3736L9.33661 15.1474C9.32329 15.1568 9.30993 15.1664 9.2885 15.1817L10.1604 16.4023ZM12.1963 14.2498C12.1699 14.2498 12.1535 14.2498 12.1372 14.2499L12.1468 15.7499C12.1572 15.7498 12.1681 15.7498 12.1963 15.7498V14.2498ZM10.2006 16.3736C10.7705 15.972 11.4496 15.7544 12.1468 15.7499L12.1372 14.2499C11.134 14.2564 10.1567 14.5695 9.33661 15.1474L10.2006 16.3736ZM5.31126 15.7498C5.42991 15.7498 5.51104 15.8697 5.46697 15.9798L6.85969 16.5369C7.29787 15.4415 6.49111 14.2498 5.31126 14.2498V15.7498ZM5.46697 15.9798C4.84839 17.5263 6.6294 18.9244 7.98474 17.9563L7.11288 16.7357C7.06542 16.7696 7.03264 16.7728 7.01093 16.7716C6.98272 16.77 6.94645 16.7583 6.91185 16.7311C6.87724 16.704 6.85722 16.6715 6.84902 16.6445C6.84271 16.6237 6.83802 16.5911 6.85969 16.5369L5.46697 15.9798ZM17.5834 9.32002C17.5834 10.7804 17.5758 11.3498 17.4454 11.7945L18.8848 12.2166C19.0911 11.5131 19.0834 10.6749 19.0834 9.32002H17.5834ZM12.6536 15.7498C14.0084 15.7498 14.8467 15.7575 15.5502 15.5512L15.1281 14.1118C14.6834 14.2422 14.114 14.2498 12.6536 14.2498V15.7498ZM17.4454 11.7945C17.118 12.9112 16.2447 13.7844 15.1281 14.1118L15.5502 15.5512C17.157 15.08 18.4136 13.8234 18.8848 12.2166L17.4454 11.7945ZM0.916748 11.8568C0.916748 14.0069 2.65972 15.7498 4.80979 15.7498V14.2498C3.48815 14.2498 2.41675 13.1784 2.41675 11.8568H0.916748ZM8.33341 0.916504C7.17901 0.916504 6.26811 0.915921 5.53568 0.975762C4.7945 1.03632 4.1703 1.16247 3.60129 1.45239L4.28228 2.7889C4.60458 2.62468 5.00941 2.52376 5.65783 2.47078C6.31501 2.41709 7.15426 2.4165 8.33341 2.4165V0.916504ZM2.41675 8.33317C2.41675 7.15402 2.41733 6.31476 2.47102 5.65759C2.524 5.00917 2.62492 4.60434 2.78914 4.28204L1.45263 3.60105C1.16271 4.17005 1.03656 4.79426 0.976006 5.53544C0.916165 6.26786 0.916748 7.17877 0.916748 8.33317H2.41675ZM3.60129 1.45239C2.67616 1.92377 1.92401 2.67592 1.45263 3.60105L2.78914 4.28204C3.11671 3.63915 3.63939 3.11647 4.28228 2.7889L3.60129 1.45239ZM11.6667 2.4165C12.8459 2.4165 13.6852 2.41709 14.3423 2.47078C14.9908 2.52376 15.3956 2.62468 15.7179 2.7889L16.3989 1.45239C15.8299 1.16247 15.2057 1.03632 14.4645 0.975762C13.7321 0.915921 12.8211 0.916504 11.6667 0.916504V2.4165ZM19.0834 8.33317C19.0834 7.17877 19.084 6.26786 19.0242 5.53544C18.9636 4.79426 18.8375 4.17005 18.5475 3.60105L17.211 4.28204C17.3752 4.60434 17.4762 5.00917 17.5291 5.65759C17.5828 6.31476 17.5834 7.15402 17.5834 8.33317H19.0834ZM15.7179 2.7889C16.3608 3.11647 16.8835 3.63915 17.211 4.28204L18.5475 3.60105C18.0762 2.67592 17.324 1.92377 16.3989 1.45239L15.7179 2.7889ZM6.66675 10.7498H13.3334V9.24984H6.66675V10.7498ZM10.0001 7.4165H13.3334V5.9165H10.0001V7.4165Z" fill="#000814"/>
</g>
</svg>
