<svg width="20" height="19" viewBox="0 0 20 19" fill="none" xmlns="http://www.w3.org/2000/svg">
<g id="Message 3">
<path id="Vector" d="M9.72443 15.7922L10.1604 16.4025L9.72443 15.7922ZM9.76862 15.7608L9.33661 15.1477L9.76862 15.7608ZM12.142 15.0002L12.1468 15.7502L12.142 15.0002ZM6.16333 16.2586L6.85969 16.5372L6.16333 16.2586ZM7.54881 17.3462L7.11288 16.7359L7.54881 17.3462ZM18.1651 12.0058L18.8848 12.2168L18.1651 12.0058ZM15.3391 14.8317L15.5502 15.5514L15.3391 14.8317ZM3.94179 2.12089L4.28228 2.78914L3.94179 2.12089ZM2.12089 3.94179L2.78914 4.28228L2.12089 3.94179ZM16.0584 2.12089L15.7179 2.78914L16.0584 2.12089ZM17.8793 3.94179L17.211 4.28228L17.8793 3.94179ZM6.66675 9.25008C6.25253 9.25008 5.91675 9.58587 5.91675 10.0001C5.91675 10.4143 6.25253 10.7501 6.66675 10.7501V9.25008ZM13.3334 10.7501C13.7476 10.7501 14.0834 10.4143 14.0834 10.0001C14.0834 9.58587 13.7476 9.25008 13.3334 9.25008V10.7501ZM10.0001 5.91675C9.58587 5.91675 9.25008 6.25253 9.25008 6.66675C9.25008 7.08096 9.58587 7.41675 10.0001 7.41675V5.91675ZM13.3334 7.41675C13.7476 7.41675 14.0834 7.08096 14.0834 6.66675C14.0834 6.25253 13.7476 5.91675 13.3334 5.91675V7.41675ZM11.6667 0.916748H8.33341V2.41675H11.6667V0.916748ZM0.916748 8.33342V11.857H2.41675V8.33342H0.916748ZM19.0834 9.32026V8.33342H17.5834V9.32026H19.0834ZM4.80979 15.7501H5.31126V14.2501H4.80979V15.7501ZM7.98474 17.9565L10.1604 16.4025L9.2885 15.1819L7.11288 16.7359L7.98474 17.9565ZM12.1963 15.7501H12.6536V14.2501H12.1963V15.7501ZM10.1604 16.4025C10.1833 16.3861 10.1921 16.3798 10.2006 16.3738L9.33661 15.1477C9.32329 15.1571 9.30993 15.1666 9.2885 15.1819L10.1604 16.4025ZM12.1963 14.2501C12.1699 14.2501 12.1535 14.2501 12.1372 14.2502L12.1468 15.7502C12.1572 15.7501 12.1681 15.7501 12.1963 15.7501V14.2501ZM10.2006 16.3738C10.7705 15.9722 11.4496 15.7546 12.1468 15.7502L12.1372 14.2502C11.134 14.2566 10.1567 14.5698 9.33661 15.1477L10.2006 16.3738ZM5.31126 15.7501C5.42991 15.7501 5.51104 15.8699 5.46697 15.9801L6.85969 16.5372C7.29787 15.4417 6.49111 14.2501 5.31126 14.2501V15.7501ZM5.46697 15.9801C4.84839 17.5265 6.6294 18.9246 7.98474 17.9565L7.11288 16.7359C7.06542 16.7698 7.03264 16.773 7.01093 16.7718C6.98272 16.7703 6.94645 16.7585 6.91185 16.7314C6.87724 16.7042 6.85722 16.6718 6.84902 16.6447C6.84271 16.6239 6.83802 16.5913 6.85969 16.5372L5.46697 15.9801ZM17.5834 9.32026C17.5834 10.7807 17.5758 11.35 17.4454 11.7948L18.8848 12.2168C19.0911 11.5133 19.0834 10.6751 19.0834 9.32026H17.5834ZM12.6536 15.7501C14.0084 15.7501 14.8467 15.7577 15.5502 15.5514L15.1281 14.112C14.6834 14.2424 14.114 14.2501 12.6536 14.2501V15.7501ZM17.4454 11.7948C17.118 12.9114 16.2447 13.7846 15.1281 14.112L15.5502 15.5514C17.157 15.0803 18.4136 13.8237 18.8848 12.2168L17.4454 11.7948ZM0.916748 11.857C0.916748 14.0071 2.65972 15.7501 4.80979 15.7501V14.2501C3.48815 14.2501 2.41675 13.1787 2.41675 11.857H0.916748ZM8.33341 0.916748C7.17901 0.916748 6.26811 0.916165 5.53568 0.976006C4.7945 1.03656 4.1703 1.16271 3.60129 1.45263L4.28228 2.78914C4.60458 2.62492 5.00941 2.524 5.65783 2.47102C6.31501 2.41733 7.15426 2.41675 8.33341 2.41675V0.916748ZM2.41675 8.33342C2.41675 7.15426 2.41733 6.31501 2.47102 5.65783C2.524 5.00941 2.62492 4.60458 2.78914 4.28228L1.45263 3.60129C1.16271 4.1703 1.03656 4.7945 0.976006 5.53568C0.916165 6.26811 0.916748 7.17901 0.916748 8.33342H2.41675ZM3.60129 1.45263C2.67616 1.92401 1.92401 2.67616 1.45263 3.60129L2.78914 4.28228C3.11671 3.63939 3.63939 3.11671 4.28228 2.78914L3.60129 1.45263ZM11.6667 2.41675C12.8459 2.41675 13.6852 2.41733 14.3423 2.47102C14.9908 2.524 15.3956 2.62492 15.7179 2.78914L16.3989 1.45263C15.8299 1.16271 15.2057 1.03656 14.4645 0.976006C13.7321 0.916165 12.8211 0.916748 11.6667 0.916748V2.41675ZM19.0834 8.33342C19.0834 7.17901 19.084 6.26811 19.0242 5.53568C18.9636 4.7945 18.8375 4.1703 18.5475 3.60129L17.211 4.28228C17.3752 4.60458 17.4762 5.00941 17.5291 5.65783C17.5828 6.31501 17.5834 7.15426 17.5834 8.33342H19.0834ZM15.7179 2.78914C16.3608 3.11671 16.8835 3.63939 17.211 4.28228L18.5475 3.60129C18.0762 2.67616 17.324 1.92401 16.3989 1.45263L15.7179 2.78914ZM6.66675 10.7501H13.3334V9.25008H6.66675V10.7501ZM10.0001 7.41675H13.3334V5.91675H10.0001V7.41675Z" fill="#CCCCCC"/>
</g>
</svg>
