<svg width="16" height="19" viewBox="0 0 16 19" fill="none" xmlns="http://www.w3.org/2000/svg">
<g id="Notification 3">
<path id="Vector" d="M4.81939 14.9998L5.15272 15.5713C6.65272 18.1427 9.65272 18.1427 11.1527 15.5713L11.4861 14.9998M1.63841 12.9578L1.72454 13.1354C2.27768 14.2757 3.4337 14.9998 4.70112 14.9998H11.5518C12.6379 14.9998 13.6487 14.445 14.2318 13.5287C15.055 12.2353 14.837 10.5386 13.7136 9.49528L13.677 9.46131C12.9143 8.75297 12.5388 7.72103 12.6679 6.68816L12.7217 6.25738C13.0264 3.81966 11.1257 1.6665 8.66897 1.6665H7.24988C4.79618 1.6665 2.89773 3.81704 3.20207 6.25178L3.2682 6.78082C3.38999 7.75509 3.03411 8.72825 2.31253 9.39411C1.32694 10.3036 1.05311 11.7512 1.63841 12.9578Z" stroke="#CCCCCC" stroke-width="1.5" stroke-linecap="round"/>
</g>
</svg>
