<svg width="33" height="32" viewBox="0 0 33 32" fill="none" xmlns="http://www.w3.org/2000/svg">
<circle cx="16.5" cy="16" r="16" fill="#000814"/>
<g clip-path="url(#clip0_2001_3940)">
<path d="M21.6971 19.4698C21.4042 19.1769 20.9293 19.1769 20.6364 19.4698C20.3435 19.7627 20.3435 20.2376 20.6364 20.5305L21.6971 19.4698ZM23.303 23.1971C23.5959 23.49 24.0708 23.49 24.3637 23.1971C24.6566 22.9042 24.6566 22.4293 24.3637 22.1364L23.303 23.1971ZM14.7626 11.4486C15.1717 11.3838 15.4508 10.9996 15.386 10.5905C15.3212 10.1813 14.937 9.90222 14.5279 9.96702L14.7626 11.4486ZM11.1336 13.3613C11.0688 13.7704 11.3479 14.1546 11.7571 14.2194C12.1662 14.2842 12.5504 14.0051 12.6152 13.596L11.1336 13.3613ZM20.6364 20.5305L23.303 23.1971L24.3637 22.1364L21.6971 19.4698L20.6364 20.5305ZM15.8334 19.9167C12.9339 19.9167 10.5834 17.5662 10.5834 14.6667H9.08337C9.08337 18.3947 12.1055 21.4167 15.8334 21.4167V19.9167ZM21.0834 14.6667C21.0834 17.5662 18.7329 19.9167 15.8334 19.9167V21.4167C19.5613 21.4167 22.5834 18.3947 22.5834 14.6667H21.0834ZM15.8334 9.41675C18.7329 9.41675 21.0834 11.7673 21.0834 14.6667H22.5834C22.5834 10.9388 19.5613 7.91675 15.8334 7.91675V9.41675ZM15.8334 7.91675C12.1055 7.91675 9.08337 10.9388 9.08337 14.6667H10.5834C10.5834 11.7673 12.9339 9.41675 15.8334 9.41675V7.91675ZM14.5279 9.96702C12.7807 10.2438 11.4104 11.6141 11.1336 13.3613L12.6152 13.596C12.7902 12.4906 13.6572 11.6236 14.7626 11.4486L14.5279 9.96702Z" fill="white"/>
</g>
<defs>
<clipPath id="clip0_2001_3940">
<rect width="16" height="16" fill="white" transform="translate(8.5 8)"/>
</clipPath>
</defs>
</svg>
