<svg width="18" height="20" viewBox="0 0 18 20" fill="none" xmlns="http://www.w3.org/2000/svg">
<g id="Document Upload 2">
<path id="Vector" d="M15.0149 6.61521L14.8975 7.35597L15.0149 6.61521ZM11.5513 3.15165L10.8105 3.26897V3.26897L11.5513 3.15165ZM3.21756 17.5374L3.6584 16.9306L3.21756 17.5374ZM2.29576 16.6156L2.90253 16.1748L2.29576 16.6156ZM15.7042 16.6156L15.0975 16.1748L15.7042 16.6156ZM14.7824 17.5374L14.3416 16.9306L14.7824 17.5374ZM14.7824 2.46227L15.2233 1.8555L14.7824 2.46227ZM15.7042 3.38407L16.311 2.94323L15.7042 3.38407ZM3.21756 2.46227L3.6584 3.06903L3.21756 2.46227ZM2.29576 3.38407L2.90253 3.8249L2.29576 3.38407ZM11.5 1.69061L11.5257 0.941051L11.5 1.69061ZM16.4759 6.6665L17.2255 6.64082L16.4759 6.6665ZM8.25 14.1665C8.25 14.5807 8.58579 14.9165 9 14.9165C9.41421 14.9165 9.75 14.5807 9.75 14.1665H8.25ZM5.13398 9.63854C4.84239 9.93274 4.84451 10.4076 5.13871 10.6992C5.4329 10.9908 5.90777 10.9887 6.19936 10.6945L5.13398 9.63854ZM6.83154 8.99119L7.36423 9.51915L6.83154 8.99119ZM11.1685 8.99119L10.6358 9.51915H10.6358L11.1685 8.99119ZM11.8006 10.6945C12.0922 10.9887 12.5671 10.9908 12.8613 10.6992C13.1555 10.4076 13.1576 9.93274 12.866 9.63854L11.8006 10.6945ZM8.79111 7.5131L8.69628 6.76912H8.69628L8.79111 7.5131ZM9.20889 7.5131L9.30372 6.76912H9.30372L9.20889 7.5131ZM9 7.49984L9 6.74984L9 7.49984ZM15.1322 5.87444C13.6702 5.64289 12.5236 4.49629 12.2921 3.03432L10.8105 3.26897C11.1437 5.37278 12.7937 7.02276 14.8975 7.35597L15.1322 5.87444ZM15.75 9.1665V10.8332H17.25V9.1665H15.75ZM2.25 10.8332V9.1665H0.75V10.8332H2.25ZM9 17.5832C7.42091 17.5832 6.29683 17.5821 5.4285 17.4881C4.57421 17.3955 4.05688 17.2202 3.6584 16.9306L2.77672 18.1442C3.47352 18.6504 4.28502 18.873 5.26693 18.9793C6.23481 19.0842 7.45432 19.0832 9 19.0832V17.5832ZM0.75 10.8332C0.75 12.3789 0.748971 13.5984 0.853834 14.5662C0.960218 15.5482 1.18275 16.3597 1.689 17.0564L2.90253 16.1748C2.61301 15.7763 2.43766 15.259 2.34511 14.4047C2.25103 13.5363 2.25 12.4123 2.25 10.8332H0.75ZM3.6584 16.9306C3.36834 16.7199 3.11326 16.4648 2.90253 16.1748L1.689 17.0564C1.99226 17.4738 2.35932 17.8409 2.77672 18.1442L3.6584 16.9306ZM15.75 10.8332C15.75 12.4123 15.749 13.5363 15.6549 14.4047C15.5623 15.259 15.387 15.7763 15.0975 16.1748L16.311 17.0564C16.8173 16.3597 17.0398 15.5482 17.1462 14.5662C17.251 13.5984 17.25 12.3789 17.25 10.8332H15.75ZM9 19.0832C10.5457 19.0832 11.7652 19.0842 12.7331 18.9793C13.715 18.873 14.5265 18.6504 15.2233 18.1442L14.3416 16.9306C13.9431 17.2202 13.4258 17.3955 12.5715 17.4881C11.7032 17.5821 10.5791 17.5832 9 17.5832V19.0832ZM15.0975 16.1748C14.8867 16.4648 14.6317 16.7199 14.3416 16.9306L15.2233 18.1442C15.6407 17.8409 16.0077 17.4738 16.311 17.0564L15.0975 16.1748ZM14.3416 3.06903C14.6317 3.27977 14.8867 3.53485 15.0975 3.8249L16.311 2.94323C16.0077 2.52583 15.6407 2.15876 15.2233 1.8555L14.3416 3.06903ZM9 0.916504C7.45432 0.916504 6.23481 0.915474 5.26693 1.02034C4.28502 1.12672 3.47352 1.34925 2.77672 1.8555L3.6584 3.06903C4.05688 2.77952 4.57421 2.60417 5.4285 2.51161C6.29683 2.41753 7.42091 2.4165 9 2.4165V0.916504ZM2.25 9.1665C2.25 7.58741 2.25103 6.46333 2.34511 5.59501C2.43766 4.74071 2.61301 4.22338 2.90253 3.8249L1.689 2.94323C1.18275 3.64002 0.960218 4.45152 0.853834 5.43344C0.748971 6.40132 0.75 7.62082 0.75 9.1665H2.25ZM2.77672 1.8555C2.35932 2.15876 1.99226 2.52583 1.689 2.94323L2.90253 3.8249C3.11326 3.53485 3.36834 3.27977 3.6584 3.06903L2.77672 1.8555ZM9 2.4165C9.97826 2.4165 10.7863 2.4166 11.4743 2.44017L11.5257 0.941051C10.8065 0.91641 9.96995 0.916504 9 0.916504V2.4165ZM11.4743 2.44017C13.0185 2.49308 13.7868 2.66596 14.3416 3.06903L15.2233 1.8555C14.2704 1.16319 13.0884 0.994593 11.5257 0.941051L11.4743 2.44017ZM10.75 1.69062C10.75 2.42126 10.7482 2.87572 10.8105 3.26897L12.2921 3.03432C12.2528 2.78656 12.25 2.47623 12.25 1.69061L10.75 1.69062ZM17.25 9.1665C17.25 8.19655 17.2501 7.36002 17.2255 6.64082L15.7263 6.69218C15.7499 7.38023 15.75 8.18825 15.75 9.1665H17.25ZM17.2255 6.64082C17.1719 5.07808 17.0033 3.89612 16.311 2.94323L15.0975 3.8249C15.5005 4.37969 15.6734 5.14796 15.7263 6.69218L17.2255 6.64082ZM16.4759 5.9165C15.6903 5.9165 15.3799 5.91368 15.1322 5.87444L14.8975 7.35597C15.2908 7.41826 15.7452 7.4165 16.4759 7.4165L16.4759 5.9165ZM9.75 14.1665V8.1665H8.25V14.1665H9.75ZM6.19936 10.6945L7.36423 9.51915L6.29885 8.46323L5.13398 9.63854L6.19936 10.6945ZM10.6358 9.51915L11.8006 10.6945L12.866 9.63854L11.7012 8.46323L10.6358 9.51915ZM7.36423 9.51915C7.84113 9.03798 8.15499 8.72292 8.41701 8.51249C8.6672 8.31156 8.79639 8.26849 8.88594 8.25708L8.69628 6.76912C8.2197 6.82986 7.83359 7.05719 7.47777 7.34295C7.13378 7.61921 6.75091 8.00711 6.29885 8.46323L7.36423 9.51915ZM11.7012 8.46323C11.2491 8.00711 10.8662 7.61921 10.5222 7.34295C10.1664 7.05719 9.7803 6.82986 9.30372 6.76912L9.11406 8.25708C9.20361 8.26849 9.3328 8.31156 9.58299 8.51249C9.84501 8.72292 10.1589 9.03798 10.6358 9.51915L11.7012 8.46323ZM8.88594 8.25708C8.92382 8.25225 8.96191 8.24984 9 8.24984L9 6.74984C8.89856 6.74984 8.79712 6.75626 8.69628 6.76912L8.88594 8.25708ZM9 8.24984C9.03809 8.24984 9.07619 8.25225 9.11406 8.25708L9.30372 6.76912C9.20289 6.75626 9.10144 6.74984 9 6.74984L9 8.24984ZM9.75 8.1665V7.49984H8.25V8.1665H9.75Z" fill="#00A8E8"/>
</g>
</svg>
